<svg xmlns="http://www.w3.org/2000/svg" viewBox="0 0 82.66 156.85"><defs><style>.cls-1{fill:#f7e7d8;}</style></defs><g id="Calque_2" data-name="Calque 2"><g id="Calque_1-2" data-name="Calque 1"><path class="cls-1" d="M13.52,150.71V155a7.87,7.87,0,0,1-4.9,1.81c-2.74,0-4.87-1.41-6.37-4.22S0,145.8,0,140.58s.75-9.3,2.26-12.23,3.66-4.41,6.46-4.41a8,8,0,0,1,4.43,1.66v4.18a6,6,0,0,0-4.13-2q-2.47,0-3.59,2.92t-1.12,9.69q0,6.72,1.13,9.66T9.16,153Q10.95,153,13.52,150.71Z"/><path class="cls-1" d="M16,156.42l6-32.25H26.3l6,32.25h-4l-1.15-7.1h-6L20,156.42Zm5.86-10.94h4.61l-2.25-13.43h-.11Z"/><path class="cls-1" d="M36.67,156.42V124.36h3.44a8,8,0,0,1,6.29,2.43,9.29,9.29,0,0,1,2.17,6.45,7.79,7.79,0,0,1-3.33,6.87q2.58,1.83,4.39,9.73l1.47,6.58H46.78l-1.24-5.53c-.89-3.87-1.66-6.34-2.31-7.39a2.48,2.48,0,0,0-2.44-1.42v14.34Zm4.12-18.18H41q3.47,0,3.47-4.85,0-5.16-3.66-5.18Z"/><path class="cls-1" d="M57.25,156.42V128.21H52.33v-3.85h14v3.85H61.37v28.21Z"/><path class="cls-1" d="M70.85,156.42V124.36H82.26v3.85H75v9.58h6.68v3.85H75v10.94h7.69v3.84Z"/><path class="cls-1" d="M60.41,84.85c3.94-7.31,9-15.54,12.53-22.21a52.47,52.47,0,0,0,3.53-7c.17-.43,0-1.8-.54-1.68L53.07,60.13Z"/><path class="cls-1" d="M73.66,12.06C68.19,5.93,56.85-.74,41.55.07,17.11,1.35,7.67,15.53,6.41,33c-.49,6.85.83,17.85,7.54,31.62,10.93,22.42,19.59,39.52,25.4,49.53a3,3,0,0,0,5.34-.08c5.82-10.71,8.11-14.64,13.14-23.94L39.09,29.53a7.92,7.92,0,0,1,5.6-10ZM47.31,71.18,34.37,75a2.59,2.59,0,0,1-3.12-1.57h0A2.23,2.23,0,0,1,33,70.69L46,66.85Zm-2.39-6.83L32,68.19a2.59,2.59,0,0,1-3.12-1.57,2.23,2.23,0,0,1,1.77-2.76L43.57,60ZM42.5,57.41,29.56,61.25a2.6,2.6,0,0,1-3.12-1.57h0a2.23,2.23,0,0,1,1.77-2.77l12.94-3.84Z"/></g></g></svg>