<svg xmlns="http://www.w3.org/2000/svg" viewBox="0 0 88.27 174.84"><defs><style>.cls-1{fill:#fae8d8;}.cls-2{font-size:48px;fill:#f7e7d8;font-family:GillSansMT-Condensed, Gill Sans MT Condensed;letter-spacing:0.03em;}.cls-3{letter-spacing:0.01em;}</style></defs><g id="Calque_2" data-name="Calque 2"><g id="Calque_1-2" data-name="Calque 1"><path class="cls-1" d="M54.78,54.57,36.56,37.27,46.3,13.7,68.07,9.09C61.2,2.23,51.59-.21,41.07,0,20.87.43,2.65,15.8,6.44,41.78c6,13,14.47,19.28,16,20.42,18.8,13.93,42.45,3.88,42.45,3.88a45.58,45.58,0,0,1-41.53,3.58c-3.23-1.27-9.2-5.78-11.91-9.44L41.12,117a2.4,2.4,0,0,0,4.3,0L75.83,56.13a36.24,36.24,0,0,0,2.85-6.79Z"/><text class="cls-2" transform="translate(0 161.88)">CA<tspan class="cls-3" x="35.38" y="0">R</tspan><tspan x="53.38" y="0">TE</tspan></text></g></g></svg>