<svg xmlns="http://www.w3.org/2000/svg" viewBox="0 0 88.27 169.39"><defs><style>.cls-1{font-size:48px;font-family:GillSansMT-Condensed, Gill Sans MT Condensed;letter-spacing:0.03em;}.cls-1,.cls-3{fill:#f7e7d8;}.cls-2{letter-spacing:0.01em;}</style></defs><g id="Calque_2" data-name="Calque 2"><g id="Calque_1-2" data-name="Calque 1"><text class="cls-1" transform="translate(0 156.42)">CA<tspan class="cls-2" x="35.38" y="0">R</tspan><tspan x="53.38" y="0">TE</tspan></text><path class="cls-3" d="M62,84.85c4-7.31,9-15.54,12.54-22.21a53.7,53.7,0,0,0,3.53-7c.17-.43,0-1.8-.54-1.68L54.61,60.13Z"/><path class="cls-3" d="M75.2,12.06C69.73,5.93,58.39-.74,43.09.07,18.66,1.35,9.21,15.53,8,33c-.49,6.85.83,17.85,7.54,31.62,10.92,22.42,19.58,39.52,25.39,49.53a3,3,0,0,0,5.34-.08c5.82-10.71,8.12-14.64,13.15-23.94L40.64,29.53a7.92,7.92,0,0,1,5.6-10ZM48.86,71.18,35.92,75a2.59,2.59,0,0,1-3.12-1.57h0a2.23,2.23,0,0,1,1.77-2.76l12.94-3.84Zm-2.39-6.83L33.53,68.19a2.59,2.59,0,0,1-3.12-1.57,2.23,2.23,0,0,1,1.77-2.76L45.12,60ZM44,57.41,31.1,61.25A2.6,2.6,0,0,1,28,59.68h0a2.24,2.24,0,0,1,1.77-2.77l12.94-3.84Z"/></g></g></svg>