<svg xmlns="http://www.w3.org/2000/svg" viewBox="0 0 165.61 46.9"><defs><style>.cls-1{fill:#1d1d1b;}</style></defs><g id="Calque_2" data-name="Calque 2"><g id="Calque_1-2" data-name="Calque 1"><path class="cls-1" d="M35,30.45a2.37,2.37,0,0,1,.45-.68,2.27,2.27,0,0,1,.68-.46,2.17,2.17,0,0,1,.84-.17,2.21,2.21,0,0,1,.84.17,2.27,2.27,0,0,1,.68.46,2.37,2.37,0,0,1,.45.68,2.26,2.26,0,0,1,.16.82v3.31H37.59V31.27a.72.72,0,0,0-.18-.48.61.61,0,0,0-.47-.21.6.6,0,0,0-.48.21.72.72,0,0,0-.18.48V36a.64.64,0,0,0,.19.46.66.66,0,0,0,.47.18.69.69,0,0,0,.61-.38l1.34.56a1.88,1.88,0,0,1-.78.92,2.15,2.15,0,0,1-1.17.34,2.08,2.08,0,0,1-.83-.16,2,2,0,0,1-.68-.45A2,2,0,0,1,34.81,36V31.27A2.26,2.26,0,0,1,35,30.45Z"/><path class="cls-1" d="M44.88,36a1.84,1.84,0,0,1-.17.81,2,2,0,0,1-.47.66,2.51,2.51,0,0,1-.68.45,2,2,0,0,1-.81.16,2.05,2.05,0,0,1-.81-.16,2.87,2.87,0,0,1-.68-.45,2.18,2.18,0,0,1-.46-.66,1.84,1.84,0,0,1-.17-.81V31.27a2.07,2.07,0,0,1,.16-.82,2.37,2.37,0,0,1,.45-.68,2.15,2.15,0,0,1,.68-.46,2.14,2.14,0,0,1,1.67,0,2.15,2.15,0,0,1,.68.46,2.37,2.37,0,0,1,.45.68,2.07,2.07,0,0,1,.16.82ZM42.1,36a.64.64,0,0,0,.19.47.58.58,0,0,0,.46.2.6.6,0,0,0,.47-.2.64.64,0,0,0,.19-.47V31.27a.68.68,0,0,0-.19-.48.61.61,0,0,0-.47-.21.59.59,0,0,0-.47.21.72.72,0,0,0-.18.48Z"/><path class="cls-1" d="M48.16,30.58a.6.6,0,0,0-.48.21.72.72,0,0,0-.18.48v6.67H46V29.3h1.31a2.64,2.64,0,0,1,.4-.12,3,3,0,0,1,.42,0,2.12,2.12,0,0,1,.83.17,2,2,0,0,1,.68.46,2.18,2.18,0,0,1,.45.68,2.08,2.08,0,0,1,.17.82v6.67H48.81V31.27a.72.72,0,0,0-.18-.48A.62.62,0,0,0,48.16,30.58Z"/><path class="cls-1" d="M52.11,29.3V28.1L53.58,27V29.3H54v1.44h-.41v5.52a.48.48,0,0,0,.08.32.47.47,0,0,0,.33.08V38.1a1.86,1.86,0,0,1-1.38-.49,1.76,1.76,0,0,1-.5-1.35V30.74H51.7V29.3Z"/><path class="cls-1" d="M60.05,38.1a2.48,2.48,0,0,1-.68-.09,1.94,1.94,0,0,1-.6-.32,1.74,1.74,0,0,1-.6.32,2.39,2.39,0,0,1-.66.09,2.12,2.12,0,0,1-.83-.16,2,2,0,0,1-.68-.45A2,2,0,0,1,55.38,36v-.45a2.81,2.81,0,0,1,.21-1.13,3,3,0,0,1,.51-.84,4.4,4.4,0,0,1,.67-.63c.24-.18.47-.36.68-.54a3.65,3.65,0,0,0,.51-.54,1,1,0,0,0,.21-.62.73.73,0,0,0-.19-.48.61.61,0,0,0-.47-.21.58.58,0,0,0-.47.21.72.72,0,0,0-.18.48H55.38a2.26,2.26,0,0,1,.16-.82,2.21,2.21,0,0,1,.46-.68,2,2,0,0,1,.68-.46,2.12,2.12,0,0,1,.83-.17,2,2,0,0,1,.89.19,2,2,0,0,1,.67.49,2.35,2.35,0,0,1,.42.72,2.47,2.47,0,0,1,.15.86V36a2.09,2.09,0,0,1,0,.26.44.44,0,0,0,0,.2.22.22,0,0,0,.12.13.5.5,0,0,0,.27,0Zm-1.88-4.38a4.29,4.29,0,0,0-.48.36,4.16,4.16,0,0,0-.42.42,2.29,2.29,0,0,0-.3.5,1.38,1.38,0,0,0-.11.57V36a.63.63,0,0,0,.18.46.67.67,0,0,0,.47.18.66.66,0,0,0,.47-.18.64.64,0,0,0,.19-.46Z"/><path class="cls-1" d="M61.38,30.45a2.37,2.37,0,0,1,.45-.68,2,2,0,0,1,.68-.46,2.14,2.14,0,0,1,1.67,0,2.15,2.15,0,0,1,.68.46,2.37,2.37,0,0,1,.45.68,2.07,2.07,0,0,1,.16.82v3.31H64V31.27a.73.73,0,0,0-.19-.48.61.61,0,0,0-.47-.21.59.59,0,0,0-.47.21.72.72,0,0,0-.18.48V36a.6.6,0,0,0,.19.46.63.63,0,0,0,.46.18.69.69,0,0,0,.61-.38l1.34.56a1.88,1.88,0,0,1-.78.92,2.2,2.2,0,0,1-2,.18,2,2,0,0,1-.68-.45,2.15,2.15,0,0,1-.45-.66,2,2,0,0,1-.17-.81V31.27A2.08,2.08,0,0,1,61.38,30.45Z"/><path class="cls-1" d="M67.29,29.3V28.1L68.76,27V29.3h.41v1.44h-.41v5.52a.48.48,0,0,0,.08.32.47.47,0,0,0,.33.08V38.1a1.86,1.86,0,0,1-1.38-.49,1.8,1.8,0,0,1-.5-1.35V30.74h-.41V29.3Z"/><path class="cls-1" d="M74.68,39.86a2,2,0,0,0,.77-.17,3.07,3.07,0,0,0,.78-.51l.71,1a4.12,4.12,0,0,1-1.08.67,3.14,3.14,0,0,1-1.18.23A3.2,3.2,0,0,1,73,40.6a4.68,4.68,0,0,1-1.37-1.3,6.66,6.66,0,0,1-.93-1.91,8.39,8.39,0,0,1,0-4.66,6.79,6.79,0,0,1,.93-1.91A4.78,4.78,0,0,1,73,29.53a3.2,3.2,0,0,1,1.68-.48,3.15,3.15,0,0,1,1.68.48,4.69,4.69,0,0,1,1.38,1.29,6.79,6.79,0,0,1,.93,1.91A7.78,7.78,0,0,1,79,35.06a5.15,5.15,0,0,1-.11,1,3.7,3.7,0,0,1-.32.92,1.87,1.87,0,0,1-.55.66,1.24,1.24,0,0,1-.78.26,1.4,1.4,0,0,1-.41-.08,2.06,2.06,0,0,1-.44-.23A2,2,0,0,1,76,37.3a.88.88,0,0,1-.24-.36,1.88,1.88,0,0,1-.63.73,1.42,1.42,0,0,1-.78.26,1.65,1.65,0,0,1-.83-.23,2.11,2.11,0,0,1-.69-.61,3.26,3.26,0,0,1-.47-.91,3.7,3.7,0,0,1-.17-1.12A3.55,3.55,0,0,1,72.39,34a3.13,3.13,0,0,1,.47-.91,2,2,0,0,1,.69-.62,1.64,1.64,0,0,1,.83-.22,1.88,1.88,0,0,1,.92.25v-.1h1.16l0,2.73a2.49,2.49,0,0,0,.08.61,2.86,2.86,0,0,0,.18.52,1.49,1.49,0,0,0,.22.36c.08.09.15.14.21.14a.31.31,0,0,0,.26-.17,1.36,1.36,0,0,0,.19-.42,4.88,4.88,0,0,0,.12-.55c0-.19,0-.37,0-.53a6.49,6.49,0,0,0-.25-1.84,5.35,5.35,0,0,0-.66-1.53,3.48,3.48,0,0,0-1-1,2.05,2.05,0,0,0-1.18-.39,2,2,0,0,0-1.18.39,3.59,3.59,0,0,0-1,1,5.35,5.35,0,0,0-.66,1.53,6.49,6.49,0,0,0-.25,1.84,6.65,6.65,0,0,0,.25,1.87,5.41,5.41,0,0,0,.66,1.52,3.82,3.82,0,0,0,1,1A2.07,2.07,0,0,0,74.68,39.86Zm-.3-6.43a.75.75,0,0,0-.63.46,2.41,2.41,0,0,0-.25,1.17,2.48,2.48,0,0,0,.25,1.16.74.74,0,0,0,.63.47.55.55,0,0,0,.36-.13,1.11,1.11,0,0,0,.29-.37,2,2,0,0,0,.19-.54A2.86,2.86,0,0,0,75.3,35a2,2,0,0,0-.3-1.1A.79.79,0,0,0,74.38,33.43Z"/><path class="cls-1" d="M85.08,36.26c0,.16,0,.27.08.32s.16.08.33.08V38.1a1.85,1.85,0,0,1-1.37-.5,1.77,1.77,0,0,1-.52-1.34V28.49l-.93-.68a.41.41,0,0,0-.28-.11.39.39,0,0,0-.41.4v1.2h1v1.44H82v9.12H80.51V30.74h-.33V29.3h.33V28.1a2,2,0,0,1,.14-.72,1.85,1.85,0,0,1,.41-.58,1.6,1.6,0,0,1,.59-.39,1.85,1.85,0,0,1,.74-.15,3.79,3.79,0,0,1,.63.07,2.17,2.17,0,0,1,.58.2v-.11h1.48Z"/><path class="cls-1" d="M90.73,36a2,2,0,0,1-.17.81,2.21,2.21,0,0,1-.47.66,2.68,2.68,0,0,1-.68.45,2.05,2.05,0,0,1-.81.16,2,2,0,0,1-.81-.16,2.51,2.51,0,0,1-.68-.45,2.21,2.21,0,0,1-.47-.66,2,2,0,0,1-.17-.81V31.27a2.07,2.07,0,0,1,.16-.82,2.37,2.37,0,0,1,.45-.68,2.14,2.14,0,0,1,1.52-.63,2.12,2.12,0,0,1,.83.17,2,2,0,0,1,.68.46,2.37,2.37,0,0,1,.45.68,2.08,2.08,0,0,1,.17.82Zm-2.79,0a.68.68,0,0,0,.19.47.6.6,0,0,0,.47.2.58.58,0,0,0,.46-.2.64.64,0,0,0,.19-.47V31.27a.68.68,0,0,0-.19-.48.59.59,0,0,0-.46-.21.6.6,0,0,0-.48.21.72.72,0,0,0-.18.48Z"/><path class="cls-1" d="M91.87,37.94V29.3H93.2a2.91,2.91,0,0,1,.39-.12,2.71,2.71,0,0,1,.41,0,2.08,2.08,0,0,1,1.19.36,2.19,2.19,0,0,1,.78.95L94.61,31a.81.81,0,0,0-.25-.3.6.6,0,0,0-.36-.12.59.59,0,0,0-.46.21.68.68,0,0,0-.19.48v6.67Z"/><path class="cls-1" d="M98.49,36a.6.6,0,0,0,.19.46.64.64,0,0,0,.47.18.67.67,0,0,0,.35-.1.62.62,0,0,0,.25-.28l1.34.56a1.91,1.91,0,0,1-.77.92,2.18,2.18,0,0,1-1.17.34,2.08,2.08,0,0,1-.83-.16,1.92,1.92,0,0,1-.68-.45,2,2,0,0,1-.46-.66A2,2,0,0,1,97,36V31.27a2.07,2.07,0,0,1,.16-.82,2.37,2.37,0,0,1,.45-.68,2.14,2.14,0,0,1,1.52-.63,2.12,2.12,0,0,1,.83.17,2.15,2.15,0,0,1,.68.46,2.37,2.37,0,0,1,.45.68,2.08,2.08,0,0,1,.17.82v3.31H98.49Zm1.31-2.88V31.27a.68.68,0,0,0-.19-.48.59.59,0,0,0-.46-.21.6.6,0,0,0-.48.21.72.72,0,0,0-.18.48v1.87Z"/><path class="cls-1" d="M105,30.58a.58.58,0,0,0-.47.21.72.72,0,0,0-.18.48v6.67h-1.48V29.3h1.31a3,3,0,0,1,.4-.12,3,3,0,0,1,.42,0,2.21,2.21,0,0,1,.84.17,2.27,2.27,0,0,1,.68.46,2.37,2.37,0,0,1,.45.68,2.07,2.07,0,0,1,.16.82v6.67h-1.47V31.27a.73.73,0,0,0-.19-.48A.61.61,0,0,0,105,30.58Z"/><path class="cls-1" d="M108.91,29.3V28.1L110.38,27V29.3h.41v1.44h-.41v5.52a.48.48,0,0,0,.08.32.47.47,0,0,0,.33.08V38.1a1.86,1.86,0,0,1-1.38-.49,1.76,1.76,0,0,1-.5-1.35V30.74h-.41V29.3Z"/><path class="cls-1" d="M116.85,36a2,2,0,0,1-.16.81,2.18,2.18,0,0,1-.46.66,2,2,0,0,1-.68.45,2.08,2.08,0,0,1-.83.16,2.13,2.13,0,0,1-1.28-.41,1.61,1.61,0,0,1-.59.32,2.46,2.46,0,0,1-.67.09V36.66c.17,0,.28,0,.33-.08a.48.48,0,0,0,.08-.32V26.42h1.48v2.83a1.88,1.88,0,0,1,.65-.11,2.17,2.17,0,0,1,.84.17,2.27,2.27,0,0,1,.68.46,2.37,2.37,0,0,1,.45.68,2.07,2.07,0,0,1,.16.82Zm-1.47-4.75a.73.73,0,0,0-.19-.48.61.61,0,0,0-.47-.21.58.58,0,0,0-.47.21.72.72,0,0,0-.18.48V36a.63.63,0,0,0,.18.46.67.67,0,0,0,.47.18.66.66,0,0,0,.47-.18.64.64,0,0,0,.19-.46Z"/><path class="cls-1" d="M118.8,26.58a1,1,0,0,1,.7.28,1,1,0,0,1,0,1.37,1,1,0,0,1-.7.29,1,1,0,0,1-.7-.29.94.94,0,0,1,0-1.38A1,1,0,0,1,118.8,26.58Zm.74,9.68c0,.16,0,.27.08.32s.16.08.33.08V38.1a1.85,1.85,0,0,1-1.37-.5,1.77,1.77,0,0,1-.52-1.34v-7h1.48Z"/><path class="cls-1" d="M121.08,31.27a2.07,2.07,0,0,1,.16-.82,2.37,2.37,0,0,1,.45-.68,2.14,2.14,0,0,1,1.52-.63,1.93,1.93,0,0,1,.65.11V26.42h1.47v9.84a.42.42,0,0,0,.09.32c0,.06.16.08.32.08V38.1a2.54,2.54,0,0,1-.68-.09,1.79,1.79,0,0,1-.59-.32,1.94,1.94,0,0,1-.6.32,2.44,2.44,0,0,1-.66.09,2,2,0,0,1-.83-.16,1.92,1.92,0,0,1-.68-.45,2,2,0,0,1-.46-.66,2,2,0,0,1-.16-.81ZM122.55,36a.6.6,0,0,0,.19.46.64.64,0,0,0,.47.18.63.63,0,0,0,.46-.18.6.6,0,0,0,.19-.46V31.27a.68.68,0,0,0-.19-.48.59.59,0,0,0-.46-.21.6.6,0,0,0-.48.21.72.72,0,0,0-.18.48Z"/><path class="cls-1" d="M131.56,36a2,2,0,0,1-.17.81,2.21,2.21,0,0,1-.47.66,2.68,2.68,0,0,1-.68.45,2.13,2.13,0,0,1-1.62,0,2.68,2.68,0,0,1-.68-.45,2.21,2.21,0,0,1-.47-.66,2,2,0,0,1-.17-.81V31.27a2.26,2.26,0,0,1,.16-.82,2.21,2.21,0,0,1,.46-.68,2.1,2.1,0,0,1,.67-.46,2.16,2.16,0,0,1,1.68,0,2.27,2.27,0,0,1,.68.46,2.37,2.37,0,0,1,.45.68,2.26,2.26,0,0,1,.16.82Zm-2.78,0a.67.67,0,0,0,.18.47.65.65,0,0,0,.94,0,.67.67,0,0,0,.18-.47V31.27a.72.72,0,0,0-.18-.48.61.61,0,0,0-.47-.21.58.58,0,0,0-.47.21.67.67,0,0,0-.18.48Z"/><path class="cls-1" d="M135.24,36.66a.6.6,0,0,0,.48-.21.67.67,0,0,0,.18-.47V29.3h1.47v8.64h-1.31a1.42,1.42,0,0,1-.4.12,1.87,1.87,0,0,1-.42,0,2.12,2.12,0,0,1-.83-.16,2.18,2.18,0,0,1-.68-.47,2.24,2.24,0,0,1-.45-.68,2.05,2.05,0,0,1-.16-.81V29.3h1.47V36a.64.64,0,0,0,.19.47A.59.59,0,0,0,135.24,36.66Z"/><path class="cls-1" d="M139.73,26.58a1,1,0,0,1,.7.28,1,1,0,0,1,0,1.37,1,1,0,0,1-1.4,0,.94.94,0,0,1,0-1.38A1,1,0,0,1,139.73,26.58Zm.74,9.68a.48.48,0,0,0,.08.32c0,.06.16.08.33.08V38.1a1.85,1.85,0,0,1-1.37-.5,1.81,1.81,0,0,1-.52-1.34v-7h1.48Z"/><path class="cls-1" d="M143.48,36.26a.48.48,0,0,0,.08.32.47.47,0,0,0,.33.08V38.1a1.87,1.87,0,0,1-1.37-.5,1.8,1.8,0,0,1-.51-1.34V26.42h1.47Zm2.74,0c0,.16,0,.27.08.32s.16.08.33.08V38.1a1.85,1.85,0,0,1-1.37-.5,1.81,1.81,0,0,1-.52-1.34V26.42h1.48Z"/><path class="cls-1" d="M149.46,36a.6.6,0,0,0,.19.46.64.64,0,0,0,.47.18.67.67,0,0,0,.35-.1.62.62,0,0,0,.25-.28l1.34.56a1.91,1.91,0,0,1-.77.92,2.18,2.18,0,0,1-1.17.34,2,2,0,0,1-.83-.16,1.92,1.92,0,0,1-.68-.45,2,2,0,0,1-.46-.66A2,2,0,0,1,148,36V31.27a2.07,2.07,0,0,1,.16-.82,2.37,2.37,0,0,1,.45-.68,2.14,2.14,0,0,1,1.52-.63,2.12,2.12,0,0,1,.83.17,2.15,2.15,0,0,1,.68.46,2.37,2.37,0,0,1,.45.68,2.08,2.08,0,0,1,.17.82v3.31h-2.79Zm1.31-2.88V31.27a.68.68,0,0,0-.19-.48.59.59,0,0,0-.46-.21.6.6,0,0,0-.48.21.72.72,0,0,0-.18.48v1.87Z"/><path class="cls-1" d="M155,36.28a1,1,0,0,1,.7.28.91.91,0,0,1,.28.68,1,1,0,0,1-.28.69,1,1,0,0,1-1.4,0,.93.93,0,0,1-.3-.69.89.89,0,0,1,.3-.69A1,1,0,0,1,155,36.28Z"/><path class="cls-1" d="M157.83,29.3V28.1a1.79,1.79,0,0,1,.15-.72,1.82,1.82,0,0,1,.4-.58,1.73,1.73,0,0,1,.6-.39,1.87,1.87,0,0,1,2.06.4l-1,1a.39.39,0,0,0-.28-.11.42.42,0,0,0-.29.11.4.4,0,0,0-.12.29v1.2h1v1.44h-1v9.12h-1.47V30.74h-.33V29.3Z"/><path class="cls-1" d="M161.52,37.94V29.3h1.32a2.64,2.64,0,0,1,.4-.12,2.58,2.58,0,0,1,.4,0,2.13,2.13,0,0,1,2,1.31l-1.36.55a.72.72,0,0,0-.25-.3.56.56,0,0,0-.36-.12.59.59,0,0,0-.46.21.68.68,0,0,0-.19.48v6.67Z"/><path class="cls-1" d="M15,27.44l-12.9.13c-1.15,0-2.06.63-2,1.75l.09,7.3a3,3,0,0,0,2.66,3.17H14.34A2.66,2.66,0,0,0,17,36.94l.1-7.42A2.12,2.12,0,0,0,15,27.44Zm-13,1.19,11.53-.1a2.8,2.8,0,0,1,1.25.25l-6,5.89a1.1,1.1,0,0,1-1.56,0L1,28.89A1.45,1.45,0,0,1,1.91,28.63Zm13.81,1.88-.05,6.2a2.38,2.38,0,0,1-2.29,2.45H3A2.38,2.38,0,0,1,.73,36.7L.64,30.43a2.53,2.53,0,0,1,.08-1l6.66,6.65a1.24,1.24,0,0,0,1.6,0l6.66-6.62A2.52,2.52,0,0,1,15.72,30.51Z"/><path class="cls-1" d="M54.2,2.89a2.79,2.79,0,0,1,.23-1.11A3,3,0,0,1,57.16,0a3.05,3.05,0,0,1,1.17.23,2.91,2.91,0,0,1,1.58,1.53,2.85,2.85,0,0,1,.23,1.13v8.7a2.77,2.77,0,0,1-.23,1.12,2.81,2.81,0,0,1-.65.91,3.06,3.06,0,0,1-.95.62,3,3,0,0,1-1.15.22A3,3,0,0,1,56,14.24a2.9,2.9,0,0,1-.94-.62,2.82,2.82,0,0,1-.64-.92,2.79,2.79,0,0,1-.23-1.11Zm4.13,0a1.08,1.08,0,0,0-.35-.8,1.12,1.12,0,0,0-.82-.33A1.14,1.14,0,0,0,56,2.89v8.7a1.08,1.08,0,0,0,.34.78,1.13,1.13,0,0,0,.81.33,1.17,1.17,0,0,0,.81-.32,1,1,0,0,0,.36-.79Z"/><path class="cls-1" d="M68,11.59a2.62,2.62,0,0,1-.22,1.06,2.9,2.9,0,0,1-.61.92,3.29,3.29,0,0,1-.94.65,2.91,2.91,0,0,1-1.19.24,3,3,0,0,1-1.15-.22,3.06,3.06,0,0,1-1-.62,2.81,2.81,0,0,1-.65-.91,2.77,2.77,0,0,1-.23-1.12V2.89a2.74,2.74,0,0,1,.23-1.1,3.1,3.1,0,0,1,.64-.92,2.94,2.94,0,0,1,.93-.63A2.78,2.78,0,0,1,65,0a3.08,3.08,0,0,1,1.68.47,2.74,2.74,0,0,1,1.08,1.29l-1.65.68A1.36,1.36,0,0,0,65.67,2a1.06,1.06,0,0,0-.62-.19,1.16,1.16,0,0,0-.83.33,1.05,1.05,0,0,0-.36.8V5.36A2.66,2.66,0,0,1,65,5.12,3.1,3.1,0,0,1,67.13,6a3,3,0,0,1,.63.92A2.85,2.85,0,0,1,68,8ZM66.18,8a1.07,1.07,0,0,0-.34-.8A1.16,1.16,0,0,0,65,6.88,1.16,1.16,0,0,0,63.86,8v3.58a1,1,0,0,0,.36.79,1.19,1.19,0,0,0,1.62,0,1,1,0,0,0,.34-.79Z"/><path class="cls-1" d="M80.39,11.59a2.62,2.62,0,0,1-.22,1.06,2.74,2.74,0,0,1-.61.92,3,3,0,0,1-.94.65,3.07,3.07,0,0,1-2.33,0,3.11,3.11,0,0,1-1-.62,2.78,2.78,0,0,1-.64-.91,2.61,2.61,0,0,1-.23-1.12V2.89a2.59,2.59,0,0,1,.23-1.1,2.9,2.9,0,0,1,.63-.92,2.88,2.88,0,0,1,.94-.63A2.7,2.7,0,0,1,77.39,0a3.09,3.09,0,0,1,1.69.47,2.72,2.72,0,0,1,1.07,1.29l-1.65.68A1.36,1.36,0,0,0,78.07,2a1,1,0,0,0-.61-.19,1.17,1.17,0,0,0-.84.33,1,1,0,0,0-.35.8V5.36a2.63,2.63,0,0,1,1.15-.24,3,3,0,0,1,1.16.23,2.93,2.93,0,0,1,1,.61,2.79,2.79,0,0,1,.63.92A2.69,2.69,0,0,1,80.39,8ZM78.58,8a1.07,1.07,0,0,0-.34-.8,1.14,1.14,0,0,0-.82-.33,1.08,1.08,0,0,0-.82.34,1.11,1.11,0,0,0-.33.79v3.58a1,1,0,0,0,.35.79,1.19,1.19,0,0,0,.81.32,1.17,1.17,0,0,0,.81-.32,1,1,0,0,0,.34-.79Z"/><path class="cls-1" d="M82.07,8.05A2.81,2.81,0,0,1,82.28,7a2.56,2.56,0,0,1,.61-.91,2.56,2.56,0,0,1-.61-.91,2.87,2.87,0,0,1-.21-1.1V2.89a2.63,2.63,0,0,1,.23-1.11,2.94,2.94,0,0,1,.63-.93,3,3,0,0,1,.94-.62A2.93,2.93,0,0,1,85,0a3,3,0,0,1,1.16.23,2.93,2.93,0,0,1,1,.61,2.79,2.79,0,0,1,.63.92A2.7,2.7,0,0,1,88,2.89V4.05a2.66,2.66,0,0,1-.23,1.09,2.64,2.64,0,0,1-.62.9,2.59,2.59,0,0,1,.62.91A2.71,2.71,0,0,1,88,8.05v3.54a2.83,2.83,0,0,1-.88,2,3.11,3.11,0,0,1-1,.62,3.09,3.09,0,0,1-2.29,0,3.06,3.06,0,0,1-.95-.62,2.79,2.79,0,0,1-.63-.92,2.63,2.63,0,0,1-.23-1.11Zm4.12-5.16a1.07,1.07,0,0,0-.34-.8A1.14,1.14,0,0,0,85,1.76a1.08,1.08,0,0,0-.82.34,1.11,1.11,0,0,0-.33.79V4.05a1.06,1.06,0,0,0,.3.76,1.15,1.15,0,0,0,.74.35h.19a1.22,1.22,0,0,0,.76-.35,1,1,0,0,0,.32-.76Zm0,5.16a1.07,1.07,0,0,0-.34-.8A1.14,1.14,0,0,0,85,6.92h-.11a1.08,1.08,0,0,0-.74.37,1.11,1.11,0,0,0-.3.76v3.54a1,1,0,0,0,.34.78,1.13,1.13,0,0,0,.81.33,1.19,1.19,0,0,0,.81-.32,1,1,0,0,0,.35-.79Z"/><path class="cls-1" d="M100.65,11.59a2.62,2.62,0,0,1-.22,1.06,2.77,2.77,0,0,1-.62.92,3.11,3.11,0,0,1-.93.65,2.91,2.91,0,0,1-1.19.24,3,3,0,0,1-1.15-.22,3.06,3.06,0,0,1-1-.62,2.81,2.81,0,0,1-.65-.91,2.77,2.77,0,0,1-.23-1.12V2.89a2.74,2.74,0,0,1,.23-1.1,3.1,3.1,0,0,1,.64-.92,2.84,2.84,0,0,1,.93-.63A2.78,2.78,0,0,1,97.65,0a3.08,3.08,0,0,1,1.68.47,2.74,2.74,0,0,1,1.08,1.29l-1.65.68A1.36,1.36,0,0,0,98.33,2a1.06,1.06,0,0,0-.62-.19,1.16,1.16,0,0,0-.83.33,1.05,1.05,0,0,0-.36.8V5.36a2.66,2.66,0,0,1,1.15-.24A3.1,3.1,0,0,1,99.79,6a3.13,3.13,0,0,1,.63.92A2.85,2.85,0,0,1,100.65,8ZM98.84,8a1.1,1.1,0,0,0-.34-.8,1.16,1.16,0,0,0-.83-.33A1.16,1.16,0,0,0,96.52,8v3.58a1,1,0,0,0,.36.79,1.19,1.19,0,0,0,1.62,0,1.08,1.08,0,0,0,.34-.79Z"/><path class="cls-1" d="M106.35,3.32a1,1,0,0,0,0-.86,1.1,1.1,0,0,0-.65-.6,1.08,1.08,0,0,0-.88,0,1.14,1.14,0,0,0-.63.61l-1.67-.66a2.86,2.86,0,0,1,.65-1,3,3,0,0,1,.94-.62A3.2,3.2,0,0,1,105.24,0a2.86,2.86,0,0,1,1.17.22,3.12,3.12,0,0,1,1,.64,3,3,0,0,1,.64.92,2.83,2.83,0,0,1,.23,1.08A2.63,2.63,0,0,1,108,4l-3.58,8.52h3.78v1.76H102.5V12.51Z"/><path class="cls-1" d="M115,2.87a2.62,2.62,0,0,1,.22-1.06,3,3,0,0,1,.61-.92,3,3,0,0,1,.94-.64A2.76,2.76,0,0,1,117.93,0a2.94,2.94,0,0,1,1.14.23,3.08,3.08,0,0,1,1,.61,2.74,2.74,0,0,1,.64.91,2.65,2.65,0,0,1,.24,1.12v8.7a2.56,2.56,0,0,1-.24,1.1,2.9,2.9,0,0,1-.63.92,3.07,3.07,0,0,1-.94.64,2.85,2.85,0,0,1-1.13.23,3.08,3.08,0,0,1-1.68-.47,2.68,2.68,0,0,1-1.08-1.29l1.65-.68a1.4,1.4,0,0,0,.43.5,1.1,1.1,0,0,0,.62.18,1.16,1.16,0,0,0,.83-.33,1,1,0,0,0,.35-.8V9.11a2.83,2.83,0,0,1-1.14.23,3,3,0,0,1-1.17-.22,3.06,3.06,0,0,1-1-.62,2.86,2.86,0,0,1-.86-2Zm1.81,3.58a1.07,1.07,0,0,0,.34.8,1.15,1.15,0,0,0,.83.33,1.07,1.07,0,0,0,.81-.34,1.11,1.11,0,0,0,.33-.79V2.87a1,1,0,0,0-.35-.79,1.19,1.19,0,0,0-1.62,0,1,1,0,0,0-.34.79Z"/><path class="cls-1" d="M126.71,2.89a1.08,1.08,0,0,0-.35-.8,1.14,1.14,0,0,0-.82-.33,1.08,1.08,0,0,0-.64.2,1.26,1.26,0,0,0-.41.48l-1.67-.68A2.92,2.92,0,0,1,123.89.49,2.84,2.84,0,0,1,125.54,0a3.09,3.09,0,0,1,1.17.23,2.91,2.91,0,0,1,1.58,1.53,2.85,2.85,0,0,1,.23,1.13V4.05a2.83,2.83,0,0,1-.22,1.09,2.82,2.82,0,0,1-.63.9,2.75,2.75,0,0,1,.63.91,2.88,2.88,0,0,1,.22,1.1v3.54a2.77,2.77,0,0,1-.23,1.12,2.81,2.81,0,0,1-.65.91,3.06,3.06,0,0,1-1,.62,3,3,0,0,1-1.15.22,3,3,0,0,1-2.74-1.74l1.67-.7a1.12,1.12,0,0,0,1.07.68,1.17,1.17,0,0,0,.81-.32,1,1,0,0,0,.36-.79V8.05a1.08,1.08,0,0,0-.35-.8,1.14,1.14,0,0,0-.82-.33V5.16a1.33,1.33,0,0,0,.83-.35,1,1,0,0,0,.34-.76Z"/><path class="cls-1" d="M139.35,2.89a1.07,1.07,0,0,0-.34-.8,1.16,1.16,0,0,0-.83-.33,1.05,1.05,0,0,0-.63.2,1.38,1.38,0,0,0-.42.48l-1.67-.68A3,3,0,0,1,136.53.49,2.84,2.84,0,0,1,138.18,0a3,3,0,0,1,1.17.23,3,3,0,0,1,1,.61,3,3,0,0,1,.63.92,2.85,2.85,0,0,1,.23,1.13V4.05a2.66,2.66,0,0,1-.22,1.09,3,3,0,0,1-.62.9,2.88,2.88,0,0,1,.62.91,2.7,2.7,0,0,1,.22,1.1v3.54a2.77,2.77,0,0,1-.87,2,3.23,3.23,0,0,1-1,.62,3,3,0,0,1-1.15.22,3,3,0,0,1-2.74-1.74l1.68-.7a1.13,1.13,0,0,0,.42.5,1.17,1.17,0,0,0,.64.18,1.21,1.21,0,0,0,.82-.32,1.05,1.05,0,0,0,.35-.79V8.05a1.07,1.07,0,0,0-.34-.8,1.16,1.16,0,0,0-.83-.33V5.16a1.34,1.34,0,0,0,.84-.35,1,1,0,0,0,.33-.76Z"/><path class="cls-1" d="M147.49,14.27h-1.82V2.62L144.16,4,143,2.68,145.67.2h1.82Z"/><path class="cls-1" d="M48.34,6.76l-5-2.39c-.24-.12-.57,0-.57.23v5.88c0,.2.31.33.54.21l5-2.64A.68.68,0,0,0,48.34,6.76ZM46.53,8.17,43.8,9.61c-.13.06-.29,0-.29-.12V6.29c0-.12.17-.19.31-.13l2.69,1.31A.37.37,0,0,1,46.53,8.17Z"/><path class="cls-1" d="M35.72,5.23a2.57,2.57,0,0,0-1.67-2.58,10.15,10.15,0,0,0-2.36-.82,27.86,27.86,0,0,0-7.21-.6c-10.09.77-7,7-7,7a2.56,2.56,0,0,0,2.13.66l.71-.07-.93,2a1.67,1.67,0,0,0,.51,2.09,2,2,0,0,0,1.15.34L32,12.86c1,0,2.05-.81,1.72-1.73l-1.43-3h.31C35.43,8.16,35.87,7.08,35.72,5.23ZM19.61,8.33a2.39,2.39,0,0,1-1.79-.69S15.55,3,24.14,2.25a25.19,25.19,0,0,1,6.76.51,8.94,8.94,0,0,1,2,.77,2.36,2.36,0,0,1,1.29,1.72c.13,1.53.19,2.14-2.11,2.27a1,1,0,0,1-1.25-1.25l0-.88c0-.33-.82-.75-1.27-.87a11.61,11.61,0,0,0-8.32.8s.45,1.12.57,1.6C22,7.88,21.27,8.29,19.61,8.33ZM31.31,12l-10.22.44a1,1,0,0,1-1-1.24l1.12-2.5c1-.25,1.44-.71,1.3-1.69a5,5,0,0,0-.63-1.56,15.31,15.31,0,0,1,7.62-.56c.57.09,1,.94.93,1.44l0,.49A1.21,1.21,0,0,0,31,7.83c.3.58,1.11,2.15,1.3,2.65A1.06,1.06,0,0,1,31.31,12Z"/><path class="cls-1" d="M28.78,32.61l-5-2.39c-.25-.12-.57,0-.57.23v5.87c0,.21.31.33.53.21l5-2.64A.68.68,0,0,0,28.78,32.61ZM27,34l-2.74,1.44c-.12.07-.29,0-.29-.11v-3.2c0-.12.18-.2.31-.13l2.7,1.3A.37.37,0,0,1,27,34Z"/></g></g></svg>