<svg xmlns="http://www.w3.org/2000/svg" viewBox="0 0 168.61 44.99"><defs><style>.cls-1{font-size:16px;letter-spacing:0.03em;}.cls-1,.cls-5,.cls-6{fill:#1d1d1b;}.cls-1,.cls-6{font-family:BerlinerWand, Berliner Wand;}.cls-2{letter-spacing:0.01em;}.cls-3{letter-spacing:0em;}.cls-4{letter-spacing:0.01em;}.cls-6{font-size:19.54px;letter-spacing:0.03em;}</style></defs><g id="Calque_2" data-name="Calque 2"><g id="Calque_1-2" data-name="Calque 1"><text class="cls-1" transform="translate(34.72 40.29) scale(1.02 1)">c<tspan class="cls-2" x="5.76" y="0">o</tspan><tspan x="11.12" y="0">ntact@fl</tspan><tspan class="cls-3" x="51.18" y="0">o</tspan><tspan x="56.54" y="0">rent</tspan><tspan class="cls-4" x="76.7" y="0">b</tspan><tspan x="82.46" y="0">idouille.fr</tspan></text><path class="cls-5" d="M14.8,29.91,2,30c-1.13,0-2,.62-2,1.72L.09,39a2.9,2.9,0,0,0,2.64,3.12H14.19a2.61,2.61,0,0,0,2.62-2.8l.1-7.31A2.09,2.09,0,0,0,14.8,29.91ZM1.89,31.08l11.4-.1a2.7,2.7,0,0,1,1.24.25L8.62,37a1.11,1.11,0,0,1-1.55,0L1,31.33A1.47,1.47,0,0,1,1.89,31.08Zm13.66,1.85L15.5,39a2.34,2.34,0,0,1-2.26,2.41H3A2.35,2.35,0,0,1,.72,39L.63,32.85a2.48,2.48,0,0,1,.09-1L7.3,38.41a1.23,1.23,0,0,0,1.59,0l6.59-6.53A2.49,2.49,0,0,1,15.55,32.93Z"/><text class="cls-6" transform="translate(53.98 16.61) scale(1.03 1)">06 68 62 93 31</text><path class="cls-5" d="M48.82,9.1l-5-2.39c-.24-.12-.56,0-.56.24v5.87c0,.21.31.33.53.21l5-2.64A.68.68,0,0,0,48.82,9.1ZM47,10.51,44.28,12c-.12.07-.29,0-.29-.11V8.63c0-.12.17-.19.31-.12L47,9.81A.37.37,0,0,1,47,10.51Z"/><path class="cls-5" d="M36.81,6.9A2.75,2.75,0,0,0,35,4.15a10.51,10.51,0,0,0-2.51-.87,29.92,29.92,0,0,0-7.67-.63c-10.73.81-7.45,7.44-7.45,7.44a2.74,2.74,0,0,0,2.27.71l.75-.09-1,2.12A1.78,1.78,0,0,0,20,15.06a2.17,2.17,0,0,0,1.22.37L32.84,15c1.11,0,2.18-.86,1.83-1.84L33.15,10h.32C36.5,10,37,8.87,36.81,6.9ZM19.67,10.2a2.53,2.53,0,0,1-1.9-.73s-2.42-4.93,6.72-5.74a26.49,26.49,0,0,1,7.2.55,9.07,9.07,0,0,1,2.1.82,2.48,2.48,0,0,1,1.37,1.82c.14,1.63.2,2.28-2.25,2.42A1.11,1.11,0,0,1,31.59,8l0-.93c0-.35-.87-.8-1.35-.93A12.35,12.35,0,0,0,21.35,7s.48,1.2.6,1.7C22.2,9.71,21.44,10.16,19.67,10.2Zm12.45,3.85-10.87.47a1,1,0,0,1-1.1-1.32l1.19-2.66c1.05-.27,1.54-.75,1.39-1.8a5.36,5.36,0,0,0-.68-1.66,16.26,16.26,0,0,1,8.11-.59c.61.09,1,1,1,1.52l0,.53a1.29,1.29,0,0,0,.63,1.13c.32.62,1.18,2.28,1.37,2.82A1.12,1.12,0,0,1,32.12,14.05Z"/><path class="cls-5" d="M29.26,35l-5-2.39c-.25-.12-.57,0-.57.23v5.88c0,.2.31.32.54.21l5-2.64A.69.69,0,0,0,29.26,35Zm-1.81,1.41L24.71,37.8c-.12.06-.29,0-.29-.12v-3.2c0-.12.18-.19.31-.13l2.7,1.31A.37.37,0,0,1,27.45,36.36Z"/></g></g></svg>