<svg xmlns="http://www.w3.org/2000/svg" viewBox="0 0 188.15 405.44"><defs><style>.cls-1{fill:#fff;}</style></defs><g id="Calque_2" data-name="Calque 2"><g id="Calque_1-2" data-name="Calque 1"><path class="cls-1" d="M86.54,20.08c-8.31,12.46-14.3,26.58-18.43,41a182.63,182.63,0,0,0-6.5,35.47c-3.44,38.77,4.91,77.8,19.41,113.71,2.37,5.3,4.88,11.55,7.4,16.78S95,240.71,98,245.82c2.8,5.21,7.35,13.34,10.54,18.32,3.23,5.5,7.81,12.59,11.43,17.87,9.17,14,21.32,29.67,31.85,42.83L87.49,370.4,75.16,349.58c-5.85-10.61-11.81-21.31-17-32.24-4.38-8.61-9-19-12.72-27.73-2.84-6.29-6.44-16.35-9-22.79-1.29-3.68-4.61-13.59-5.9-17.48-2.11-6.46-4.08-14.19-6-20.74C11.44,177.49,8.9,122.51,24.74,71.69A210.31,210.31,0,0,1,48.25,20.78,147.23,147.23,0,0,1,62.79,1.53L64.21,0,86.54,20.08Z"/><polyline class="cls-1" points="157.27 241 117.2 348.29 0.4 310.55 0 311.61 29.2 372.53 143.96 405.44 188.15 297.84"/></g></g></svg>