<svg xmlns="http://www.w3.org/2000/svg" viewBox="0 0 148.25 117.42"><defs><style>.cls-1,.cls-4,.cls-5,.cls-8{fill:none;}.cls-1,.cls-2,.cls-3,.cls-4,.cls-5,.cls-6,.cls-7,.cls-8{stroke:#1d1d1b;stroke-miterlimit:10;}.cls-1,.cls-2{stroke-linecap:round;}.cls-1,.cls-8{stroke-width:2px;}.cls-2,.cls-3,.cls-7{fill:#1d1d1b;}.cls-2,.cls-3,.cls-4,.cls-6{stroke-width:3px;}.cls-5,.cls-7{stroke-width:4px;}.cls-6{fill:#fff;}</style></defs><g id="Calque_2" data-name="Calque 2"><g id="Calque_1-2" data-name="Calque 1"><line class="cls-1" x1="117.44" y1="89.95" x2="121.61" y2="54.76"/><path class="cls-2" d="M128.92,68.39l.33-2.77c.32-2.72-.77-5.09-2.45-5.29l-12.2-1.45c-1.2-.14-2.38,1.28-2.67,3.23l-.51,4.32Z"/><path class="cls-3" d="M140.52,103.55,141,106s.12,3.29-3,.48c-1.7-1.55-1-2.61-1-2.61"/><path class="cls-3" d="M87.37,98.39,86,101.17s-1.17,3.9,3.86,1.47c2.78-1.33,2.12-2.82,2.12-2.82"/><path class="cls-3" d="M29.38,81.91l-.77,1.62s-.68,2.25,2.24.85c1.61-.78,1.22-1.64,1.22-1.64"/><path class="cls-4" d="M71.28,22.36,61.06,19.55C48.76,18.6,41.37,17,36,37.21c-4.54,17.15-8.77,42.56-8.77,42.56L87.07,98.22"/><line class="cls-4" x1="140.96" y1="41.51" x2="114.68" y2="33.92"/><path class="cls-4" d="M108.41,37l4.61-.44L119.54,24c5-5,2.17-9.54-7-9.13"/><path class="cls-5" d="M88.33,99l54.81,4.89,2.39-32.51c.76-10.38,1.4-21.93-.72-26.32s-18.9-6.65-24.45-7.21c-4.67-.47-15.53-.89-19.86,1-4.75,2.09-7,16.21-8,24.75Z"/><path class="cls-4" d="M61.06,19.55S52,21.42,56.89,25.66s44.82,12.9,44.82,12.9"/><path class="cls-4" d="M66.72,28.63,77,10.62C77.48-1.9,88.45.42,94.52,6a13,13,0,0,0,6.86,2.39c7.58.39,15.81,5.63,6.22,13.76l-7.35,15.52Z"/><ellipse class="cls-6" cx="133.88" cy="78.85" rx="2.42" ry="2.64"/><ellipse class="cls-6" cx="132.79" cy="89.54" rx="2.42" ry="2.64"/><path class="cls-4" d="M27.37,73.58c-.59,0-16.47-5.93-22.62,4.83-9.3,16.27,3.57,24.84,11.2,29.21,16.4,9.4,35.72,4.61,35.72,4.61"/><path class="cls-7" d="M58.78,114.21l-3.52,1.1c-7-2.64-2.19-8.35-2.19-8.35l2.41-.88,2.3,5.67Z"/><line class="cls-8" x1="66.55" y1="109.5" x2="58.86" y2="112.32"/><line class="cls-8" x1="64.21" y1="104.05" x2="56.3" y2="107.02"/><path class="cls-4" d="M43.45,68.6S60.1,56.79,73.07,75"/><ellipse class="cls-4" cx="56.42" cy="47.6" rx="4.94" ry="0.77" transform="translate(0.07 95.28) rotate(-80.38)"/><ellipse class="cls-4" cx="68.81" cy="51.66" rx="4.94" ry="0.77" transform="translate(6.38 110.88) rotate(-80.38)"/></g></g></svg>