<svg xmlns="http://www.w3.org/2000/svg" viewBox="0 0 222.62 222.62"><defs><style>.cls-1{fill:none;stroke:#e30613;stroke-miterlimit:10;stroke-width:20px;}.cls-2{fill:#fff;}.cls-3,.cls-4{fill:#1d1d1b;}.cls-4{font-size:46.15px;font-family:Oswald-Regular, Oswald;letter-spacing:0.1em;}</style></defs><g id="Calque_2" data-name="Calque 2"><g id="Calque_1-2" data-name="Calque 1"><g id="Calque_5" data-name="Calque 5"><path class="cls-1" d="M212.62,111.31A101.31,101.31,0,1,0,111.31,212.62,101.31,101.31,0,0,0,212.62,111.31Z"/><line class="cls-1" x1="39.98" y1="182.64" x2="182.64" y2="39.98"/></g><g id="Calque_4" data-name="Calque 4"><rect class="cls-2" x="49.54" y="50.98" width="121.76" height="121.76" rx="24.81"/><path class="cls-3" d="M45.45,73.8H56.6A21.44,21.44,0,0,1,72.36,57.34V46.06A31,31,0,0,0,45.45,73.8Z"/><path class="cls-3" d="M165,73.8h11.16a31,31,0,0,0-26.92-27.74V57.34A21.44,21.44,0,0,1,165,73.8Z"/><path class="cls-3" d="M149.23,165.28v11.28a31,31,0,0,0,26.92-27.74H165A21.44,21.44,0,0,1,149.23,165.28Z"/><path class="cls-3" d="M56.6,148.82H45.45a31,31,0,0,0,26.91,27.74V165.28A21.44,21.44,0,0,1,56.6,148.82Z"/><path class="cls-3" d="M144.42,71.57,132.71,82.66a4.12,4.12,0,0,0-1.2,2.91h0a4.11,4.11,0,0,0,4.11,4.11h0a4.12,4.12,0,0,0,2.91-1.2l11.71-11.1v7.77a3.31,3.31,0,0,0,3.31,3.31h1.6c1.83,0,1.48-1.48,1.48-3.31V72c0-4.78-2-6.83-6.83-6.83H136.65c-1.83,0-3.31-.35-3.31,1.49v1.59a3.32,3.32,0,0,0,3.31,3.32Z"/><path class="cls-3" d="M77.87,151l11.71-11.1a4.12,4.12,0,0,0,1.2-2.91h0a4.11,4.11,0,0,0-4.11-4.11h0a4.12,4.12,0,0,0-2.91,1.2l-11.71,11.1V137.4a3.31,3.31,0,0,0-3.32-3.31H67.14c-1.83,0-1.49,1.48-1.49,3.31v13.15c0,4.78,2,6.83,6.83,6.83H85.63c1.84,0,3.32.35,3.32-1.48v-1.6A3.31,3.31,0,0,0,85.63,151Z"/><text class="cls-4" transform="translate(83.02 125.77)">1m</text></g></g></g></svg>