<svg xmlns="http://www.w3.org/2000/svg" viewBox="0 0 804.43 438.68"><defs><style>.cls-1{fill:#3b4e3d;}.cls-2{fill:#f8ac1a;}</style></defs><g id="Calque_2" data-name="Calque 2"><polygon class="cls-1" points="316.01 135.3 287.3 47.67 264.19 54.57 302.29 166.35 355.69 150.4 347.32 126.01 316.01 135.3"/><polygon class="cls-1" points="249.42 58.99 191.15 74.44 228.99 189.98 253.34 182.64 237.71 133.82 257.51 128.12 250.3 107.48 230.78 113.1 221.82 87.8 256.19 78.64 249.42 58.99"/><path class="cls-2" d="M418.07,6,360.44,22.41a8,8,0,0,0-5.64,5.93l-14.09,61a8.07,8.07,0,0,0,2.19,7.55l43.59,43a8.08,8.08,0,0,0,7.86,2l57.75-16.42a8,8,0,0,0,5.62-5.84l14.47-59.49a8.05,8.05,0,0,0-2.11-7.57L426,8.1A8.09,8.09,0,0,0,418.07,6ZM415.5,106.53c-17,4.82-34.76-5.49-39.75-23S380.48,47.83,397.44,43s34.76,5.49,39.75,23S432.47,101.71,415.5,106.53Z"/><polygon class="cls-1" points="792.69 109.03 797.47 90.68 740.77 76.4 735.4 94.81 753.13 99.5 727.32 191.77 748.38 197.02 773.73 104.48 792.69 109.03"/><polygon class="cls-1" points="668.85 176.9 694.03 183.11 725.87 72.47 707.16 67.76 685.1 144.95 679.68 60.92 653.55 54.34 621.79 164.94 642.69 170.1 662.07 95.81 668.85 176.9"/><path class="cls-1" d="M545.36,94.76l-.17-.08M531.9,83c13.46-2.83,20.65-10.11,23.87-20.62q4.28-13.92-4.72-24.68a48.32,48.32,0,0,0-27.23-16.74l-20.35-5.24L471.66,127.05l22.34,5.5,13-47.16A21.22,21.22,0,0,1,520,92.21c16.5,17,2.57,47.69,2.57,47.69l21.28,5.37s6.44-18.24,5.85-29.64C548.43,91.11,534.25,84.77,531.9,83ZM513.6,64.16l6.94-25c8.37,1.73,20.28,6.73,17.36,18.81C535.22,69.08,521.55,65.77,513.6,64.16Z"/><path class="cls-1" d="M331.81,243.24h-6.72v176.9h10q27.38,0,42.49-21.66T392.66,334C392.66,276.9,372.38,243.24,331.81,243.24ZM375,336.68c-.67,46.11-19.82,50.21-31.17,51.48L345,280.48C356.92,279.31,375.75,287.24,375,336.68Z"/><rect class="cls-1" x="288.22" y="243.24" width="22.83" height="176.9"/><path class="cls-1" d="M542,364.7q0,11.16-4.23,17.32t-10.94,6.14q-15.15,0-15.16-24.46V243.24H491V377.7q0,19.85,10.23,32.27c6.82,8.29,15.36,10.17,25.62,10.17,9.64,0,18-1.71,25.16-9.67s10.7-19.46,10.7-34.53V243.24H542Z"/><polygon class="cls-1" points="701.11 243.24 677.18 243.24 677.18 420.14 723.26 420.14 723.26 389.75 701.11 389.75 701.11 243.24"/><rect class="cls-1" x="576.58" y="243.24" width="22.84" height="176.9"/><polygon class="cls-1" points="637.48 243.24 614.65 243.24 614.65 420.14 662.8 420.14 662.8 389.75 637.48 389.75 637.48 243.24"/><path class="cls-1" d="M469.4,270.71c-4.8-13-16.66-27.47-28.65-27.47-12.36,0-23.54,14.2-28.87,27.53-6.62,16.57-10.33,37.61-10.33,63.48q0,41.06,10.92,64.61c7.28,15.69,16.76,21.28,28.33,21.28,11.21,0,20.51-5.52,28-21.1s11.25-37.17,11.25-64.79C480.06,308.3,475.61,287.52,469.4,270.71ZM446.46,388.16c-10.67,0-19.31-23-19.31-53.56s8.64-55.4,19.31-55.4,19.31,24.8,19.31,55.4S457.13,388.16,446.46,388.16Z"/><polygon class="cls-1" points="731.7 420.14 732.96 243.59 803.64 243.24 803.39 279.07 755.06 279.4 754.79 319.42 794.96 319.12 794.49 343.88 754.32 344.19 754.32 387.8 802.66 387.46 802.39 419.79 731.7 420.14"/><path class="cls-1" d="M244.08,326.64c16.62-9.33,25.56-24.43,26.11-37.42.38-9.25-1.61-34.59-14.94-46L157.94,420l54.64.12q29.11,0,44.94-14t15.83-36.23Q273.35,339.11,244.08,326.64Z"/><polygon class="cls-1" points="558.63 148.98 588.69 37.67 635.73 49.71 629.66 71.88 597.49 63.7 590.68 89.05 617.42 95.83 613 111.47 586.26 104.69 579.03 132.38 611.21 140.56 605.67 161.03 558.63 148.98"/></g><g id="Calque_7" data-name="Calque 7"><path class="cls-2" d="M196.15,307.75c14.31-26.54,32.57-56.39,45.47-80.56,5.5-10.3,8.79-14.87,12.8-25.3.6-1.56-.17-6.52-2-6.07l-82.92,22.27Z"/><path class="cls-2" d="M244.21,43.74c-19.84-22.23-61-46.41-116.46-43.5C39.13,4.89,4.88,56.34.33,119.76c-1.77,24.84,3,64.75,27.34,114.68,39.62,81.31,71,143.33,92.11,179.62,4.64,8,15,7.83,19.36-.27,21.11-38.85,29.44-53.1,47.67-86.85l-68-219.84a28.76,28.76,0,0,1,20.31-36.34ZM148.66,258.16l-46.93,13.93c-4.89,1.19-10-1.35-11.31-5.69h0c-1.35-4.34,1.52-8.83,6.42-10l46.93-13.93ZM140,233.38,93.06,247.31c-4.89,1.2-10-1.35-11.31-5.69s1.52-8.83,6.42-10l46.93-13.93Zm-8.8-25.18L84.27,222.13c-4.9,1.2-10-1.35-11.32-5.69h0c-1.35-4.34,1.53-8.83,6.42-10l46.93-13.93Z"/></g></svg>