<svg id="Calque_2" data-name="Calque 2" xmlns="http://www.w3.org/2000/svg" viewBox="0 0 797.2 408.03"><defs><style>.cls-1{fill:#3b4e3d;}.cls-2{fill:#fbb909;}.cls-3{fill:#f8ac1a;}</style></defs><path class="cls-1" d="M249.87,389.25V234.82h21.76V389.25Zm37.29,0V234.82h24q58,0,58,77,0,38.49-14.4,58t-40.49,19.48Zm35-30.78h2.21q13.26,0,18.74-11.21t5.49-37q0-26.94-5.19-38.15t-18.7-11.21h-2.55Zm98.18,30.78c-13.35,0-24.3-5-32.7-19.14S375,336.64,375,312q0-34.87,11.93-57.06t33.31-22.18q20.78,0,33.07,22.12T465.63,312q0,37.26-13,58.25C444,384.28,433.26,389.25,420.32,389.25Zm7.62-122.85q-9.19,0-14.12,12.26t-4.91,33.78q0,22.29,5.07,34.16t14.38,11.87q8.89,0,14-12.13t5.13-33.9q0-22.12-5.18-34.08T427.94,266.4Zm47.28-31.58H497V336.48q0,22,15.94,22a14.1,14.1,0,0,0,11.5-5.52q4.46-5.54,4.45-15.57V234.82h21.76V349.51q0,20.33-11.25,31c-7.5,7.15-16.32,8.7-26.46,8.7-10.79,0-19.78-1.7-26.95-9.15s-10.75-17.12-10.75-29Zm90.57,154.43V234.82h21.76V389.25Zm38.27,0V234.82h21.76V358.47H661v30.78Zm66.59,0V234.82h22.8V358.47h34.11v30.78Zm66.34,0V234.82h60.2v18.51H758.75V299.5h34.18l-.28,22.36H758.47l.28,48.87H797.2v18.52Z"/><path class="cls-1" d="M342.53,97.22q-4.69-21.7-16.62-32.55a27.76,27.76,0,0,0-12.71-6.92,27.09,27.09,0,0,0-14.3.94q-15.56,5-21.25,21.57t-1,38.19q5,22.89,17,33.07T320.2,157q14.12-4.55,20.73-20.61T342.53,97.22ZM331.2,123.28q-2.1,9.22-9,11.24-7.28,2.11-13.13-4.62t-9.37-21.56q-3.41-14.3-1.5-23.57t9.11-11.35q7.19-2.08,13.14,4.68t9.44,21.47Q333.3,114,331.2,123.28Z"/><polygon class="cls-1" points="250.85 157.71 231.71 76.23 212.3 81.61 235.87 180.31 285.31 165.57 279.84 149.33 250.85 157.71"/><polygon class="cls-1" points="199.26 84.42 151.11 97.14 175.18 196.77 196.29 191.18 185.69 147.09 204.38 142.43 200.71 126.75 180.97 132.16 175.32 107.47 203.1 100.08 199.26 84.42"/><polygon class="cls-1" points="648.12 176.38 657.09 163.89 600.65 131.63 591.68 144.11 611.56 155.48 559.48 223.51 576.14 233.04 628.23 165.01 648.12 176.38"/><polygon class="cls-1" points="441.52 140.76 460.93 115.68 486.33 131.26 495.62 118.56 471.39 102.97 486.69 82 517.06 98.76 524.37 89.14 479.7 63.95 419.96 144.13 465.02 170.28 472.13 158.46 441.52 140.76"/><polygon class="cls-1" points="536.63 177.57 552.26 104.95 536.58 96.36 476.67 176.58 490.74 184.04 534.37 125.19 534.74 125.42 516.41 199.52 529.85 207.23 592.06 125.9 576.84 117.16 536.63 177.57"/><path class="cls-1" d="M387.79,84.06c8.16-7.17,10.15-15.2,8.06-24.07q-2.78-11.75-13.44-16.16c-7.12-2.95-14.29-2.74-25.71.62l-14.31,4.2,21,94.37,19.22-5-10.9-42.76c3.95-1.5,9.07-2.71,12.9-.86,3.41,1.65,7.29,2.5,9.71,8.27l8.85-14.06C397.15,84,390.36,84.52,387.79,84.06Zm-13.54-5.78-1.62.17-4-22.5c7.44-2.16,15.16.45,16.9,7.83C387.14,70.72,381.29,76.21,374.25,78.28Z"/><path class="cls-1" d="M410.24,96.84l-15.94,5.8a39,39,0,0,1,2.31,12c.16,8.22-3.16,17.75-3.16,17.75l15.36,6.12s6.67-9.61,6.49-20.7C415.05,102.2,410.24,96.84,410.24,96.84Z"/><line class="cls-2" x1="408.14" y1="85.42" x2="415.31" y2="47.87"/><polygon class="cls-3" points="407.02 85.21 408.59 46.59 422.02 49.15 409.26 85.64 407.02 85.21"/><line class="cls-2" x1="419.96" y1="79.9" x2="452.76" y2="46.53"/><polygon class="cls-3" points="419.12 79.07 445.44 39.34 460.07 53.72 420.81 80.74 419.12 79.07 419.12 79.07"/><line class="cls-2" x1="415.58" y1="92.39" x2="449.28" y2="81.87"/><polygon class="cls-3" points="415.23 91.26 447.53 76.28 451.03 87.47 415.94 93.52 415.23 91.26"/><path class="cls-1" d="M205.6,232.39c5,1.92,11.13,6.58,15.18,10.2q13,11.57,13,27.54,0,21.4-22.55,34.14,26.47,11.33,26.47,39.31,0,20.24-14.31,32.95t-40.66,12.72l-58.3.09Z"/><g id="Calque_7" data-name="Calque 7"><path class="cls-3" d="M157.39,293.25c11.33-22.26,23.8-45.29,34-65.56,4.36-8.63,7-12.47,10.14-21.22.48-1.3-.14-5.46-1.55-5.09l-63.69,16.68Z"/><path class="cls-3" d="M193.46,73.86c-15.71-18.64-47-36.7-90.93-34.26C32.32,43.5,3.86,84.42.27,137.61c-1.41,20.83,2.37,54.29,21.65,96.16,29.83,64.8,54.32,116.63,73,150.63,3.67,6.7,11.85,6.56,15.34-.24C127,351.59,133.55,339.64,148,311.34L87.09,102.82ZM115.77,252.6,70.59,264.28a7.35,7.35,0,0,1-9-4.77h0a6.8,6.8,0,0,1,5.09-8.41l45.17-11.68Zm-6.87-20.78L63.72,243.51a7.36,7.36,0,0,1-9-4.77,6.8,6.8,0,0,1,5.09-8.41L105,218.65Zm-7-21.11L56.76,222.39a7.36,7.36,0,0,1-9-4.77h0a6.8,6.8,0,0,1,5.09-8.41l45.17-11.68Z"/></g></svg>