<svg xmlns="http://www.w3.org/2000/svg" viewBox="0 0 223.65 223.65"><defs><style>.cls-1{fill:none;stroke:#e30613;stroke-miterlimit:10;stroke-width:20px;}.cls-2{fill:#1d1d1b;}.cls-3{font-size:50.63px;fill:#fff;font-family:Oswald-Regular, Oswald;}.cls-4{font-size:25.32px;}</style></defs><g id="Calque_2" data-name="Calque 2"><g id="Calque_1-2" data-name="Calque 1"><g id="Calque_3" data-name="Calque 3"><path class="cls-1" d="M213.65,111.83A101.83,101.83,0,1,0,111.83,213.65,101.83,101.83,0,0,0,213.65,111.83Z"/><line class="cls-1" x1="40.14" y1="183.51" x2="183.51" y2="40.14"/></g><path class="cls-2" d="M181.41,150.07l-13-72.51a24.26,24.26,0,0,0-23.87-20H126.82a19,19,0,1,0-28,0H81.11a24.24,24.24,0,0,0-23.86,20l-13,72.51a16.15,16.15,0,0,0,15.9,19H165.51A16.15,16.15,0,0,0,181.41,150.07ZM112.83,33.78a11,11,0,1,1-11,11A11,11,0,0,1,112.83,33.78Z"/><text class="cls-3" transform="translate(86.77 119.9)">20<tspan class="cls-4"><tspan x="14.4" y="30.38">kg</tspan></tspan></text></g></g></svg>