<svg xmlns="http://www.w3.org/2000/svg" viewBox="0 0 781.29 374.57"><defs><style>.cls-1{fill:#3b4e3d;}.cls-2{fill:#fbb909;}</style></defs><g id="Calque_2" data-name="Calque 2"><path class="cls-1" d="M256.12,373.75V216.32h20.8V373.75Zm35.64,0V216.32h22.93q55.41,0,55.42,78.48,0,39.26-13.77,59.1t-38.7,19.85Zm33.44-31.37h2.11q12.68,0,17.92-11.44t5.24-37.74q0-27.45-5-38.88t-17.88-11.43H325.2ZM419,374.57c-12.76,0-23.16-5.94-31.19-20.33S375.73,320.12,375.73,295q0-35.55,11.41-58.17T419,214.25q19.86,0,31.61,22.56T462.35,295q0,38-12.41,59.38C441.67,368.68,431.35,374.57,419,374.57Zm7.35-126q-8.79,0-13.49,12.49t-4.7,34.44q0,22.73,4.85,34.82t13.74,12.11q8.49,0,13.4-12.37t4.9-34.56q0-22.56-4.95-34.74T426.33,248.52Zm45.19-32.2h20.8V320q0,22.43,15.24,22.43a13.16,13.16,0,0,0,11-5.64q4.26-5.62,4.26-15.87V216.32H543.6V333.24q0,20.72-10.75,31.65c-7.17,7.28-15.6,9.68-25.29,9.68-10.32,0-18.9-2.55-25.76-10.15S471.52,347,471.52,334.85Zm86.57,157.43V216.32h20.8V373.75Zm36.59,0V216.32h20.8V342.38h33.57v31.37Zm63.65,0V216.32h20.79V342.38h33.6v31.37Zm63.41,0V216.32h57.54V235.2H742.53v47.06h33.68l-.27,22.79H742.26l.27,49.82h38.76v18.88Z"/><path class="cls-1" d="M335.55,26.86a26.24,26.24,0,0,0-11.5-8.48,23.39,23.39,0,0,0-13.73-.28Q295,22,288.08,39.09t-4.45,40.47q2.64,24.75,13.17,36.63t24.85,8.2q13.88-3.57,21.66-20t5.12-41.45Q345.92,39.44,335.55,26.86Zm-.43,64.26q-2.83,9.19-9.64,10.65-7.12,1.52-12.07-5.82t-7-22.69q-1.93-14.81.73-24.06t9.7-10.74q7-1.51,12.08,5.87t7,22.61Q338,81.94,335.12,91.12Z"/><polygon class="cls-1" points="249.46 119.58 238.28 35.21 219.66 39.11 233.48 142.33 287.87 130.96 285.22 112.1 249.46 119.58"/><polygon class="cls-1" points="207.63 41.78 159.81 51.62 173.63 154.84 192.25 150.95 187.06 107.75 209 101.76 206.02 84.4 184.04 89.64 180.92 64.1 210.12 58.15 207.63 41.78"/><polygon class="cls-1" points="637.04 153.38 646.62 139.26 591.18 106.44 581.59 120.57 601.13 132.13 551.27 203.52 567.64 213.21 617.5 141.82 637.04 153.38"/><polygon class="cls-1" points="431.87 118.17 451.85 90.24 478.37 105.93 487.43 92.4 460.91 76.7 477.06 53.16 506 70.28 513.12 60.03 467.82 33.21 408.37 118.73 455.26 146.48 462.39 136.23 431.87 118.17"/><polygon class="cls-1" points="569.65 93.48 532.97 146.25 532.52 146.14 541.09 76.58 527.78 68.71 468.34 154.22 483.41 163.14 520.43 109.88 520.79 110.12 511.97 180.05 525.27 187.92 584.72 102.41 569.65 93.48"/><path class="cls-1" d="M395.56,54q14-10.53,12.06-25.25-1.74-13-12.57-18.74T365.6,8.12L350,11.37,363.86,114.6l18.62-3.9L376.3,64.52a12.06,12.06,0,0,1,11.62,2.27q3.27,2.65,7.92,10.74l7.63-19.21A21.71,21.71,0,0,0,395.56,54ZM383,45.52l-.62.13-3.17-23.79Q391.36,19.39,393,31.6,394.52,43.12,383,45.52Z"/><path class="cls-1" d="M414.45,68.46l-18.6,9c-.76,3.44-1.8,7.39-3.13,11.88L387.39,107l17.16,10.16,6.35-21Q416,79,414.45,68.46Z"/><line class="cls-1" x1="413.19" y1="49.19" x2="417.26" y2="34.37"/><polygon class="cls-1" points="412.09 48.89 413.76 33.41 420.77 35.33 414.28 49.49 412.09 48.89 412.09 48.89"/><line class="cls-1" x1="422.55" y1="49.88" x2="448.51" y2="31.89"/><polygon class="cls-1" points="421.88 48.9 444.06 25.46 452.96 38.32 423.23 50.85 421.88 48.9 421.88 48.9"/><line class="cls-1" x1="420.83" y1="61.37" x2="437.15" y2="61.37"/><polygon class="cls-1" points="420.83 60.19 437.15 56.79 437.15 65.96 420.83 62.56 420.83 60.19 420.83 60.19"/><path class="cls-1" d="M216.57,216.32a34.85,34.85,0,0,1,11.75,7.92q12.41,11.81,12.41,28.08,0,21.82-21.55,34.8,25.31,11.55,25.3,40.07,0,20.63-13.68,33.59t-38.87,13H138.29"/></g><g id="Calque_7" data-name="Calque 7"><path class="cls-2" d="M154.15,172.69,96.64,118.06l30.74-74.38,68.71-14.53C174.39,7.51,144.06-.19,110.86.5,47.12,1.82-10.38,50.32,1.59,132.3c18.77,41.19,45.67,60.84,50.55,64.45,59.33,44,134,12.26,134,12.26S129.61,249.67,55,220.29c-10.17-4-29-18.24-37.59-29.8L111,369.55a7.59,7.59,0,0,0,13.57,0l96-192a115.31,115.31,0,0,0,9-21.43Z"/></g></svg>